<svg width="144" height="144" viewBox="0 0 144 144" fill="none" xmlns="http://www.w3.org/2000/svg">
<rect width="144" height="144" rx="72" fill="#121619" fill-opacity="0.75"/>
<path d="M99.28 74.092C99.5608 73.6512 99.7502 73.1585 99.837 72.6432C99.9238 72.1278 99.9062 71.6003 99.7854 71.0918C99.6645 70.5834 99.4428 70.1044 99.1334 69.6832C98.8239 69.2621 98.4331 68.9073 97.984 68.64L58.296 44.512C57.6506 44.1213 56.9104 43.9152 56.156 43.916C53.916 43.916 52.104 45.688 52.104 47.876V96.12C52.104 96.86 52.316 97.584 52.716 98.212C53.9 100.068 56.396 100.636 58.296 99.48L97.984 75.356C98.508 75.036 98.956 74.6 99.284 74.088L99.28 74.092ZM102.264 82.08L62.58 106.204C56.88 109.672 49.38 107.964 45.836 102.4C44.6378 100.525 44.0008 98.3456 44 96.12V47.88C44 41.316 49.44 36 56.16 36C58.428 36 60.652 36.62 62.58 37.792L102.264 61.92C107.964 65.384 109.712 72.704 106.164 78.272C105.18 79.816 103.844 81.12 102.264 82.08Z" fill="white"/>
</svg>
