<svg width="64" height="64" viewBox="0 0 64 64" fill="none" xmlns="http://www.w3.org/2000/svg">
<path d="M32 0.5C49.397 0.5 63.5 14.603 63.5 32C63.5 49.397 49.397 63.5 32 63.5C14.603 63.5 0.5 49.397 0.5 32C0.5 14.603 14.603 0.5 32 0.5Z" stroke="#881337"/>
<path d="M19.026 45V42.246L21.024 41.868C21.456 41.76 21.834 41.526 22.158 41.166L29.232 32.202H31.446L36.36 25.506L34.146 24.858V22.158H43.11V24.858L41.328 25.236C40.896 25.344 40.518 25.578 40.194 25.938L33.336 34.524H31.284L26.208 41.652L28.908 42.246V45H19.026ZM31.176 45V42.246L33.39 41.652L29.07 35.118H28.638L21.834 25.938C21.582 25.578 21.222 25.344 20.754 25.236L19.134 24.858V22.158H31.986V24.858L29.502 25.506L33.768 31.878H34.2L41.112 41.166C41.4 41.526 41.778 41.76 42.246 41.868L43.866 42.246V45H31.176Z" fill="#881337"/>
</svg>
