<svg width="25" height="24" viewBox="0 0 25 24" fill="none" xmlns="http://www.w3.org/2000/svg">
<path d="M7.33314 18.9999C6.60992 18.9995 5.89539 18.8422 5.23885 18.5389C4.58231 18.2355 3.99939 17.7934 3.53031 17.2429C3.06122 16.6925 2.71714 16.0468 2.52179 15.3504C2.32644 14.6541 2.28448 13.9237 2.3988 13.2095C2.51312 12.4954 2.78101 11.8146 3.18397 11.214C3.58694 10.6135 4.11539 10.1075 4.73287 9.73095C5.35035 9.35443 6.04217 9.11634 6.76059 9.03312C7.47901 8.9499 8.20693 9.02352 8.89414 9.24891C9.52871 7.76654 10.6555 6.54862 12.0841 5.80085C13.5127 5.05309 15.1556 4.82133 16.7354 5.1447C18.3151 5.46807 19.7348 6.32677 20.7547 7.57574C21.7745 8.82472 22.3321 10.3874 22.3331 11.9999C22.3331 13.8564 21.5956 15.6369 20.2829 16.9497C18.9701 18.2624 17.1897 18.9999 15.3331 18.9999H7.33314ZM7.33314 16.9999H15.3331C16.2361 16.9995 17.1221 16.7546 17.8971 16.2911C18.672 15.8277 19.307 15.163 19.7346 14.3677C20.1623 13.5724 20.3665 12.6761 20.3257 11.7741C20.2849 10.872 20.0007 9.99788 19.503 9.24441C19.0054 8.49093 18.313 7.88628 17.4994 7.49465C16.6858 7.10302 15.7813 6.93904 14.882 7.0201C13.9826 7.10116 13.1221 7.42425 12.3916 7.95506C11.6611 8.48588 11.088 9.20459 10.7331 10.0349L10.0131 11.7209L8.27114 11.1489C7.85891 11.0139 7.42231 10.9699 6.99144 11.0199C6.56057 11.07 6.14567 11.2128 5.77534 11.4387C5.40501 11.6646 5.08807 11.968 4.84637 12.3282C4.60466 12.6884 4.44393 13.0967 4.37527 13.525C4.30661 13.9533 4.33164 14.3914 4.44864 14.8091C4.56565 15.2268 4.77184 15.6142 5.053 15.9445C5.33416 16.2748 5.68361 16.5402 6.07725 16.7224C6.4709 16.9046 6.89937 16.9993 7.33314 16.9999Z" fill="#475569"/>
</svg>
