<svg width="65" height="64" viewBox="0 0 65 64" fill="none" xmlns="http://www.w3.org/2000/svg">
<path d="M18.6543 10.6666H46.8353C46.8353 10.6666 44.487 46.0189 32.7449 46.0189C27.0087 46.0189 23.5144 37.5826 21.4404 28.9522C19.2687 19.9158 18.6543 10.6666 18.6543 10.6666Z" stroke="#BE123C" stroke-width="1.5" stroke-linecap="round" stroke-linejoin="round"/>
<path d="M46.8359 10.6667C46.8359 10.6667 49.2925 8.04623 51.3341 7.99999C55.3341 7.90943 56.0735 10.6667 56.0735 10.6667C56.8565 12.2921 57.4826 16.5181 53.7253 20.4191C49.9677 24.32 45.7615 27.7333 44.0498 28.9523" stroke="#BE123C" stroke-width="1.5" stroke-linecap="round" stroke-linejoin="round"/>
<path d="M18.6545 10.6667C18.6545 10.6667 16.095 8.01637 14.0003 8.00002C10.0003 7.9688 9.26083 10.6667 9.26083 10.6667C8.478 12.2921 7.85176 16.5181 11.6093 20.4191C15.3667 24.32 19.7291 27.7333 21.4406 28.9525" stroke="#BE123C" stroke-width="1.5" stroke-linecap="round" stroke-linejoin="round"/>
<path d="M23.3516 53.3333C23.3516 48.4571 32.7451 46.0189 32.7451 46.0189C32.7451 46.0189 42.139 48.4571 42.139 53.3333H23.3516Z" stroke="#BE123C" stroke-width="1.5" stroke-linecap="round" stroke-linejoin="round"/>
</svg>
